<svg width="30" height="30" viewBox="0 0 30 30" fill="none" xmlns="http://www.w3.org/2000/svg">
<path d="M30 15C30 6.71573 23.2843 0 15 0C6.71573 0 0 6.71573 0 15C0 23.2843 6.71573 30 15 30C23.2843 30 30 23.2843 30 15Z" fill="#51B56D"/>
<path d="M13.1131 16.0207H11.1513C10.8414 16.0207 10.7329 15.9082 10.7329 15.5983C10.7329 14.801 10.7329 14.003 10.7329 13.2043C10.7329 12.8964 10.8493 12.7799 11.1533 12.7799H13.1131V11.0529C13.0899 10.2772 13.276 9.50953 13.652 8.83058C14.0428 8.14514 14.669 7.62478 15.4145 7.36611C15.8982 7.19009 16.4095 7.10186 16.9243 7.10558H18.8644C19.1427 7.10558 19.2592 7.22795 19.2592 7.50032V9.75229C19.2592 10.0345 19.1408 10.147 18.8644 10.147C18.3335 10.147 17.8026 10.147 17.2737 10.1687C16.7447 10.1905 16.4566 10.4312 16.4566 10.9839C16.4447 11.576 16.4566 12.1562 16.4566 12.7602H18.7362C19.0598 12.7602 19.1704 12.8707 19.1704 13.1964C19.1704 13.9858 19.1704 14.7793 19.1704 15.5766C19.1704 15.8983 19.0677 16.001 18.7421 16.001H16.4447V22.4233C16.4447 22.7668 16.3362 22.8753 15.9987 22.8753H13.5276C13.2296 22.8753 13.1131 22.7589 13.1131 22.4608V16.0207Z" fill="#F6F7F9"/>
</svg>
